<svg width="15" height="13" viewBox="0 0 15 13" fill="none" xmlns="http://www.w3.org/2000/svg">
<path id="Vector" d="M4.71818 12.9998C5.86987 13.0075 7.01153 12.7713 8.07695 12.3048C9.14237 11.8383 10.1103 11.1508 10.9247 10.2823C11.7391 9.41369 12.3837 8.38131 12.8211 7.24499C13.2585 6.10868 13.48 4.89105 13.4727 3.66272V3.23368C14.0697 2.76718 14.5865 2.19393 15 1.53934C14.4379 1.80156 13.843 1.97547 13.2341 2.05564C13.8797 1.64535 14.3641 0.999521 14.5977 0.237669C13.996 0.622672 13.3362 0.893327 12.6477 1.03758C12.184 0.510631 11.5705 0.161355 10.9019 0.0437908C10.2334 -0.0737735 9.54712 0.0469276 8.94937 0.387218C8.35161 0.727509 7.87567 1.26842 7.59519 1.92626C7.3147 2.58409 7.2453 3.32218 7.39773 4.02632C6.17456 3.96228 4.97776 3.6242 3.88524 3.03407C2.79273 2.44395 1.829 1.61502 1.05682 0.601263C0.667447 1.32203 0.549427 2.17368 0.726654 2.98377C0.903881 3.79385 1.36311 4.50184 2.01136 4.96439C1.53314 4.94472 1.06599 4.80521 0.647727 4.55716V4.59352C0.643478 5.34677 0.881401 6.07882 1.32184 6.66766C1.76229 7.2565 2.37864 7.66657 3.06818 7.82951C2.62339 7.9571 2.15747 7.97698 1.70455 7.88768C1.90417 8.53007 2.28524 9.09087 2.79549 9.49316C3.30573 9.89545 3.92018 10.1195 4.55455 10.1347C3.46992 11.0659 2.12188 11.5784 0.729546 11.5891C0.485423 11.5815 0.241873 11.5597 0 11.5236C1.40929 12.4813 3.04718 12.9861 4.71818 12.978" fill="white" fill-opacity="0.85"/>
</svg>
